<svg id="Calque_1" data-name="Calque 1" xmlns="http://www.w3.org/2000/svg" viewBox="0 0 364 305.5"><defs><style>.cls-1{fill:none;}.cls-1,.cls-2,.cls-3,.cls-4{stroke:#fff;stroke-miterlimit:10;stroke-width:3px;}.cls-2{fill:#fbb03b;}.cls-3{fill:#754c24;}.cls-4{fill:#ccc;}</style></defs><title>lock</title><line class="cls-1" y1="73" x2="364" y2="73"/><rect class="cls-2" x="143.5" y="1.5" width="77" height="143" rx="12" ry="12"/><rect class="cls-2" x="23" y="192" width="318" height="112" rx="12" ry="12"/><rect class="cls-3" x="50" y="215" width="28" height="67" rx="12" ry="12"/><rect class="cls-3" x="129" y="215" width="28" height="67" rx="12" ry="12"/><rect class="cls-3" x="208" y="215" width="28" height="67" rx="12" ry="12"/><rect class="cls-3" x="287" y="215" width="28" height="67" rx="12" ry="12"/><path class="cls-4" d="M560,197c-72.35,0-131,57.63-131,128.72V326h22.49v-.23c0-58.89,48.58-106.62,108.51-106.62s108.51,47.73,108.51,106.62V326H691v-.28C691,254.63,632.35,197,560,197Z" transform="translate(-377.5 -134.5)"/><rect class="cls-2" x="171.5" y="39.5" width="22" height="68" rx="11" ry="11"/></svg>